<svg t="1649569878413" class="icon" viewBox="0 0 1024 1024" version="1.1" xmlns="http://www.w3.org/2000/svg" p-id="4752" width="200" height="200"><path d="M860.28 163.72C788.28 89.35 663.96 67.3 512 65c-151.96 2.3-276.28 24.35-348.28 98.72C89.35 235.72 67.3 360.04 65 512c2.3 151.96 24.35 276.28 98.72 348.28 72 74.37 196.31 96.43 348.28 98.72 151.96-2.3 276.28-24.35 348.28-98.72 74.37-72 96.43-196.31 98.72-348.28-2.3-151.96-24.35-276.28-98.72-348.28zM278.81 815.64V311.37h-72.08v-72.11h168.5v244.2l244.2-244.2h200.19L278.81 815.64z" fill="#409ED7" p-id="4753"></path><path d="M375.22 483.46V239.27H206.73v72.1h72.08v504.27l540.8-576.37H619.42z" fill="#FFFFFF" p-id="4754"></path></svg>